<svg xmlns="http://www.w3.org/2000/svg" viewBox="0 0 570.51 120"><style>.st0{display:none;fill:#ef7e19}.st1{fill:#ff8000}.st2{fill:#fff}.st3{display:none}.st4{display:inline;opacity:.5;fill:#446cb2}</style><g id="Layer_1"><path class="st0" d="M208.33 38.89s7.73-3.99 11.39-9.31-25.61 2.33-25.61 2.33l14.22 6.98z"/><path id="House_1_" class="st1" d="M87.12 59.15a91.44 91.44 0 0 0-6.51-9.48l-.06-.08-.02-.02c-.12-.15-.43-.53-.54-.68-1.08-1.48-2.35-13.33-2.5-14.2-.18-1.03-.47-2.1-1.96-2.26-1.21-.13-3-.33-4.98-.43-.92-.05-1.39.45-1.63.9-.17.31-.24.66-.24 1.01-.03 1.52.01 2.26.01 2.45 0 .02 0 .04-.01.06-.02.11-.08.19-.16.26-.17.14-.42.13-.6-.01-.94-.71-5.83-4.43-8.54-6.1-.13-.07-.26-.14-.39-.2-.99-.44-2.14-.46-3.08.08-.07.04-.13.08-.19.12-.89.56-16.14 9.22-27.68 28.48 0 0-.72 1.01-.18 1.95.52 1.08 5.56 1.39 6.37 1.48.91.1.9.84.9.84.09 7.91.23 11.74 1.52 25.15 0 0 .21 1.4 1.59 1.47.56.03 2.64-.09 8.17-.22.21.02.4-.13.42-.34v-.1c-.53-5.47-.7-10.21-.71-10.48-.01-.2-.19-.49-.37-.56-2.04-1.17-3.25-3.21-3.27-5.56-.15-10.83.51-19.15.51-19.15s.06-1.15 1.08-1.06c1.01.09.95 1.23.95 1.23-.36 4.67-.5 13.08-.5 13.08s0 1.6 1.53 1.6 1.53-1.6 1.53-1.6c-.05-6.58.51-13.2.51-13.2s0-1.12 1.08-1.12c.59 0 .81.4.9.73.05.17.06.35.04.53-.45 5.7-.5 13.05-.5 13.05s0 1.6 1.53 1.6 1.53-1.73 1.53-1.73c-.03-5.46.51-13.05.51-13.05.05-.59.34-1.11 1.07-1.11.9.03.97.89.95 1.11-.48 5.92-.49 15-.47 18.89a6.531 6.531 0 0 1-3.11 5.76.61.61 0 0 0-.26.56c.13 3.6.43 7.6.69 10.46.01.19.16.35.35.37 1.53 0 4.47-.02 6.31-.02 2.96 0 4.14.02 6.31.05.24 0 .36-.18.38-.43.56-5.18.76-8.94.78-9.27.03-.37-.42-.44-.42-.44-.68-.09-2.27-.28-3.62-.5s-1.4-1.76-1.4-1.76c-1.14-16.17 7.39-26.25 7.39-26.25s.85-1.12 2.03-.68c1.04.39 1.31 3.38 1.33 3.56 1.14 13.39-.15 29-.89 35.37-.03.26.09.47.33.52.29.05 5.42.22 5.89.17.83-.09 1.5-.72 1.63-1.55 1.82-12.53 1.54-25.09 1.54-25.09.04-.45.39-.8.84-.84l4.91-.53c.64-.09 1.19-.35 1.48-.9.26-.6.24-1.32-.1-1.89"/><path class="st1" d="M113.2 50.55h-7.73c-2.51 0-2.51 0-3.03 2.93s-.52 3.03 1.78 3.03h4.6l-2.61 14.94c-.63 3.34-2.09 5.64-6.58 7-1.15.31-1.46.73-1.46 1.25 0 .63.21 1.15.73 2.4.73 1.78 1.15 2.09 1.78 2.09.63 0 1.78-.31 2.19-.42 6.37-2.09 8.98-7 10.03-12.85l2.93-16.82c.5-3.55.5-3.55-2.63-3.55M139.42 50.55c-3.13 0-3.13 0-3.55 2.61l-2.3 13.58c-.63 3.97-1.67 6.27-5.54 6.27-3.76 0-5.12-2.3-4.49-5.85l2.19-12.95c.63-3.66.52-3.66-2.72-3.66-3.13 0-3.24 0-3.66 2.51l-2.3 13.58c-1.36 7.73 3.45 12.54 10.24 12.54 7.63 0 11.49-3.45 12.75-11.6l2.3-13.48c.53-3.55.32-3.55-2.92-3.55M153.73 72.8c2.51-.1 3.87-1.25 3.87-2.4 0-1.46-1.78-1.98-4.18-2.72-4.7-1.46-8.98-3.13-8.98-8.15 0-5.95 4.91-9.19 11.07-9.19 2.61 0 5.54.1 7.42.31 1.67.21 2.09.73 1.57 3.34-.52 2.61-1.15 2.82-2.61 2.72-1.78-.1-4.07-.31-6.79-.31-3.13 0-4.07 1.15-4.07 2.19 0 1.36 1.25 2.09 4.18 2.93 5.43 1.57 8.98 3.76 8.98 8.46 0 5.54-4.07 8.78-10.66 8.98-3.55.1-6.69-.1-9.4-.52-2.09-.31-2.19-.31-1.67-3.34.52-2.72.52-2.93 2.51-2.72 3.85.42 6.26.53 8.76.42M187.9 50.55h-17.66c-2.51 0-2.51 0-3.03 3.03s-.42 3.03 1.78 3.03h5.75l-3.24 18.7c-.63 3.66-.52 3.66 2.72 3.66 3.03 0 3.13 0 3.55-2.61l3.34-19.74h5.54c2.51 0 2.51 0 3.03-3.03.51-3.04.51-3.04-1.78-3.04M219.03 56.51c2.51 0 2.51 0 3.03-3.03s.52-3.03-1.78-3.03h-12.64c-4.49 0-4.39 0-5.12 4.49l-3.24 18.91c-.84 4.91-.73 4.91 3.76 4.91h12.33c2.61 0 2.51 0 3.03-2.93.52-3.03.52-3.03-1.78-3.03h-10.66l.84-5.43h8.88c2.4 0 2.4 0 2.82-2.82.42-2.93.42-2.93-2.82-2.93h-7.84l.84-5.12 10.35.01zM232.4 66.53l4.07-8.98c.31-.73.31-.73.84-.73.52 0 .52 0 .63.84l1.25 8.88h-6.79zM243.47 54c-.63-3.55-.63-3.55-5.64-3.55-4.7 0-4.6 0-6.06 2.93l-10.55 22.04c-1.57 3.13-1.25 3.45 2.61 3.45 3.03 0 3.03 0 4.28-2.82l1.67-3.76h10.24l.52 3.76c.42 2.82.52 2.82 3.55 2.82 3.45 0 3.76-.21 3.13-3.66L243.47 54zM268.44 50.55h-17.76c-2.51 0-2.51 0-3.03 3.03s-.42 3.03 1.78 3.03h5.75l-3.24 18.7c-.63 3.66-.52 3.66 2.72 3.66 3.03 0 3.13 0 3.55-2.61l3.34-19.74h5.54c2.51 0 2.51 0 3.03-3.03.62-3.04.62-3.04-1.68-3.04"/><g><path class="st1" d="M290.8 56.46h-6.72a.86.86 0 0 1-.86-.86v-4.02c0-.47.38-.86.86-.86h21.05c.47 0 .86.38.86.86v4.02c0 .47-.38.86-.86.86h-6.72c-.24 0-.43.19-.43.43v20.79c0 .47-.38.86-.86.86h-5.05a.86.86 0 0 1-.86-.86V56.89a.404.404 0 0 0-.41-.43z"/><path class="st1" d="M301.64 72.59c0-3.85 2.87-6.03 8.81-6.33l5.26-.26v-.09c0-2.48-1.84-3.46-4.23-3.46-1.7 0-3.33.5-4.31 1.32-.22.18-.54.16-.75-.03-.67-.65-2.05-1.99-2.85-2.76a.852.852 0 0 1 0-1.23c1.75-1.65 4.68-2.86 8.55-2.86 6.29 0 9.92 3.46 9.92 8.68v12.11c0 .47-.38.86-.86.86h-4.23a.86.86 0 0 1-.86-.86v-1.2H316c-1.28 1.67-3.55 2.57-6.33 2.57-4.53 0-8.03-2.35-8.03-6.46zm14.07-1.79v-.15c0-.25-.21-.44-.45-.43l-4 .23c-2.14.13-3.25.77-3.25 2.05 0 1.45 1.41 2.1 3.12 2.1 2.61 0 4.58-1.45 4.58-3.8zM329.84 78.54h-4.62a.86.86 0 0 1-.86-.86V49.24c0-.47.38-.86.86-.86h4.62c.47 0 .86.38.86.86v15.13c0 .39.47.58.74.29l6.58-6.99c.16-.17.39-.27.62-.27h5.37c.75 0 1.14.89.63 1.44l-6.9 7.46c-.14.15-.15.38-.03.55l7.67 10.33c.42.56.02 1.37-.69 1.37h-5.45c-.27 0-.52-.12-.68-.33l-4.92-6.38a.848.848 0 0 0-1.28-.08l-1.41 1.41c-.16.16-.25.38-.25.61v3.92c0 .45-.39.84-.86.84z"/><path class="st1" d="M344.17 67.97c0-5.18 3.17-11.08 10.82-11.08 7.7 0 10.69 5.9 10.69 11.08 0 .4-.05.96-.12 1.44-.06.42-.42.74-.85.74h-13.53c-.31 0-.52.32-.39.6.83 1.89 2.81 2.74 4.75 2.74 1.57 0 3.11-.45 4.1-1.19.33-.25.81-.21 1.11.09l2.66 2.58c.35.34.35.89 0 1.23-1.72 1.65-4.63 2.86-8.09 2.86-7.64-.01-11.15-5.91-11.15-11.09zm6.88-2.22h7.84c.29 0 .49-.28.41-.56-.65-2.12-2.33-2.99-4.31-2.99-2.01 0-3.7.87-4.35 2.99-.08.27.12.56.41.56zM387.66 57.41h5.16c.38 0 .71.24.82.6l3.88 12.57h.09L401.56 58c.11-.36.44-.6.82-.6h5.29c.37 0 .7.24.81.59l4.04 12.58h.09L416.49 58c.11-.36.44-.6.82-.6h5.16c.59 0 1.01.59.8 1.15l-7.04 19.42c-.12.34-.44.56-.8.56h-5.46a.86.86 0 0 1-.81-.58l-3.75-10.82c-.13-.39-.68-.38-.81 0l-3.64 10.81a.85.85 0 0 1-.81.58h-5.46c-.36 0-.68-.23-.8-.56l-7.04-19.42c-.2-.54.21-1.13.81-1.13zM445.07 85.87v-3.88c0-.51.44-.9.95-.85.33.04.69.06 1.02.06 2.12 0 2.97-.71 3.7-2.31.1-.21.11-.46.02-.68l-7.71-19.63a.857.857 0 0 1 .8-1.17h5.07c.36 0 .68.23.81.57l4.59 12.86h.09L459 57.98c.12-.34.44-.57.81-.57h4.9c.6 0 1.02.61.8 1.17l-7.88 19.96c-2.14 5.35-4.19 8.3-9.97 8.3-.59 0-1.25-.04-1.84-.12a.868.868 0 0 1-.75-.85zM466.88 67.97c0-5.26 3.34-11.08 10.78-11.08 3.03 0 5.52 1.07 7.18 2.65.35.33.34.89 0 1.23l-1.32 1.27c-.32.31-.82.32-1.15.03-1.32-1.16-3.03-1.68-4.71-1.68-3.98 0-6.93 3.21-6.93 7.57s2.95 7.57 6.93 7.57c1.8 0 3.38-.53 4.81-1.67a.87.87 0 0 1 1.15.05l1.3 1.28c.35.35.34.92-.03 1.25-1.76 1.6-4.16 2.61-7.23 2.61-7.45 0-10.78-5.82-10.78-11.08zM485.86 67.97c0-5.18 3.51-11.08 10.95-11.08 7.44 0 10.95 5.9 10.95 11.08s-3.51 11.08-10.95 11.08c-7.44 0-10.95-5.9-10.95-11.08zm10.96 7.66c4.11 0 7.1-3.25 7.1-7.66s-2.99-7.66-7.1-7.66c-4.11 0-7.1 3.25-7.1 7.66s2.99 7.66 7.1 7.66zM510.25 57.41h1.88c.47 0 .86.38.86.86v1.28h.09c1.11-1.58 3.34-2.65 6.25-2.65 3.01 0 5.4 1.07 6.9 3 .17.22.5.23.68.01 1.58-1.97 4.09-3 7.27-3 5.3 0 8.68 3.25 8.68 8.9V77.7c0 .47-.38.86-.86.86h-2.05a.86.86 0 0 1-.86-.86V66.52c0-4.02-1.93-6.25-5.48-6.25-3.47 0-5.6 2.22-5.6 6.25v11.16c0 .47-.38.86-.86.86h-2.05a.86.86 0 0 1-.86-.86V66.52c0-4.02-1.93-6.25-5.48-6.25-3.47 0-5.6 2.22-5.6 6.25v11.16c0 .47-.38.86-.86.86h-2.05a.86.86 0 0 1-.86-.86V58.26c.01-.47.39-.85.86-.85zM366.23 72.59c0-3.85 2.87-6.03 8.81-6.33l5.26-.26v-.09c0-2.48-1.84-3.46-4.23-3.46-1.7 0-3.33.5-4.31 1.32-.22.18-.54.16-.75-.03-.67-.65-2.05-1.99-2.85-2.76a.852.852 0 0 1 0-1.23c1.75-1.65 4.68-2.86 8.55-2.86 6.29 0 9.92 3.46 9.92 8.68v12.11c0 .47-.38.86-.86.86h-4.23a.86.86 0 0 1-.86-.86v-1.2h-.09c-1.28 1.67-3.55 2.57-6.33 2.57-4.53 0-8.03-2.35-8.03-6.46zm14.07-1.79v-.15c0-.25-.21-.44-.45-.43l-4 .23c-2.14.13-3.25.77-3.25 2.05 0 1.45 1.41 2.1 3.12 2.1 2.61 0 4.58-1.45 4.58-3.8zM422.57 72.59c0-3.85 2.87-6.03 8.81-6.33l5.26-.26v-.09c0-2.48-1.84-3.46-4.23-3.46-1.7 0-3.33.5-4.31 1.32-.22.18-.54.16-.75-.03-.67-.65-2.05-1.99-2.85-2.76a.852.852 0 0 1 0-1.23c1.75-1.65 4.68-2.86 8.55-2.86 6.29 0 9.92 3.46 9.92 8.68v12.11c0 .47-.38.86-.86.86h-4.23a.86.86 0 0 1-.86-.86v-1.2h-.09c-1.28 1.67-3.55 2.57-6.33 2.57-4.52 0-8.03-2.35-8.03-6.46zm14.08-1.79v-.15c0-.25-.21-.44-.45-.43l-4 .23c-2.14.13-3.25.77-3.25 2.05 0 1.45 1.41 2.1 3.12 2.1 2.61 0 4.58-1.45 4.58-3.8z"/><circle class="st1" cx="463.94" cy="76.4" r="2.54"/></g></g><g id="Layer_2" class="st3"><path class="st4" d="M46.12 21.28c0-5.22 3.89-8.18 11.95-8.58l7.13-.35v-.12c0-3.36-2.49-4.7-5.74-4.7-2.3 0-4.52.68-5.84 1.79-.29.25-.73.22-1.01-.05-.91-.88-2.78-2.69-3.87-3.74-.47-.46-.48-1.22 0-1.67C51.11 1.64 55.08 0 60.33 0c8.53 0 13.46 4.7 13.46 11.77v16.41c0 .64-.52 1.16-1.16 1.16h-5.74c-.64 0-1.16-.52-1.16-1.16v-1.62h-.13c-1.74 2.26-4.81 3.48-8.58 3.48-6.15 0-10.9-3.19-10.9-8.76zm19.08-2.43v-.2c0-.33-.28-.6-.61-.58l-5.42.31c-2.9.17-4.41 1.04-4.41 2.78 0 1.97 1.91 2.84 4.23 2.84 3.54.01 6.21-1.96 6.21-5.15zM0 68.46c0-5.22 3.89-8.18 11.95-8.58l7.13-.35v-.12c0-3.36-2.49-4.7-5.74-4.7-2.3 0-4.52.68-5.84 1.79-.29.25-.73.22-1.01-.05-.91-.88-2.78-2.69-3.87-3.74-.47-.46-.48-1.22 0-1.67 2.37-2.23 6.34-3.88 11.59-3.88 8.53 0 13.46 4.7 13.46 11.77v16.41c0 .64-.52 1.16-1.16 1.16h-5.74c-.64 0-1.16-.52-1.16-1.16v-1.62h-.12c-1.74 2.26-4.81 3.48-8.58 3.48C4.76 77.22 0 74.03 0 68.46zm19.08-2.44v-.2c0-.33-.28-.6-.61-.58l-5.42.31c-2.9.17-4.41 1.04-4.41 2.78 0 1.97 1.91 2.84 4.23 2.84 3.54.02 6.21-1.96 6.21-5.15zM542.85 70.24c0-5.22 3.89-8.18 11.95-8.58l7.13-.35v-.12c0-3.36-2.49-4.7-5.74-4.7-2.3 0-4.52.68-5.84 1.79-.29.25-.73.22-1.01-.05-.91-.88-2.78-2.69-3.87-3.74-.47-.46-.48-1.22 0-1.67 2.37-2.23 6.34-3.88 11.59-3.88 8.53 0 13.46 4.7 13.46 11.77v16.41c0 .64-.52 1.16-1.16 1.16h-5.74c-.64 0-1.16-.52-1.16-1.16V75.5h-.12c-1.74 2.26-4.81 3.48-8.58 3.48-6.16.01-10.91-3.18-10.91-8.74zm19.08-2.44v-.2c0-.33-.28-.6-.61-.58l-5.42.31c-2.9.17-4.41 1.04-4.41 2.78 0 1.97 1.91 2.84 4.23 2.84 3.54.01 6.21-1.96 6.21-5.15zM24.67 111.24c0-5.22 3.89-8.18 11.95-8.58l7.13-.35v-.12c0-3.36-2.49-4.7-5.74-4.7-2.3 0-4.52.68-5.84 1.79-.29.25-.73.22-1.01-.05-.91-.88-2.78-2.69-3.87-3.74-.47-.46-.48-1.22 0-1.67 2.37-2.23 6.34-3.88 11.59-3.88 8.53 0 13.46 4.7 13.46 11.77v16.41c0 .64-.52 1.16-1.16 1.16h-5.74c-.64 0-1.16-.52-1.16-1.16v-1.62h-.12c-1.74 2.26-4.81 3.48-8.58 3.48-6.15.02-10.91-3.17-10.91-8.74zm19.09-2.43v-.2c0-.33-.28-.6-.61-.58l-5.42.31c-2.9.17-4.41 1.04-4.41 2.78 0 1.97 1.91 2.84 4.23 2.84 3.54.01 6.21-1.96 6.21-5.15z"/></g></svg>